<svg width="22" height="22" viewBox="0 0 22 22" fill="none" xmlns="http://www.w3.org/2000/svg">
<path d="M20.0032 6.81175C19.9189 6.6899 19.8063 6.59031 19.675 6.5215C19.5438 6.45269 19.3978 6.41672 19.2497 6.41667H6.72159L5.66376 3.8775C5.52506 3.54312 5.29019 3.25746 4.98893 3.05673C4.68767 2.856 4.3336 2.74925 3.97159 2.75H1.83301V4.58334H3.97159L8.32026 15.0196C8.38991 15.1866 8.50742 15.3292 8.65798 15.4295C8.80854 15.5298 8.98542 15.5834 9.16634 15.5833H16.4997C16.8819 15.5833 17.2238 15.3459 17.3586 14.9893L20.1086 7.656C20.1606 7.51724 20.1781 7.36794 20.1598 7.22091C20.1414 7.07387 20.0877 6.93348 20.0032 6.81175ZM15.8644 13.75H9.77776L7.48609 8.25H17.9269L15.8644 13.75Z" fill="white"/>
<path d="M9.625 19.25C10.3844 19.25 11 18.6344 11 17.875C11 17.1156 10.3844 16.5 9.625 16.5C8.86561 16.5 8.25 17.1156 8.25 17.875C8.25 18.6344 8.86561 19.25 9.625 19.25Z" fill="white"/>
<path d="M16.042 19.25C16.8014 19.25 17.417 18.6344 17.417 17.875C17.417 17.1156 16.8014 16.5 16.042 16.5C15.2826 16.5 14.667 17.1156 14.667 17.875C14.667 18.6344 15.2826 19.25 16.042 19.25Z" fill="white"/>
</svg>
