<svg width="14" height="14" viewBox="0 0 14 14" fill="none" xmlns="http://www.w3.org/2000/svg">
<path d="M10.5997 13.6667C7.87787 13.6631 5.26855 12.5803 3.34394 10.6557C1.41933 8.73112 0.336536 6.1218 0.333008 3.39999C0.333008 2.58666 0.656102 1.80665 1.23121 1.23153C1.80633 0.656423 2.58634 0.333328 3.39967 0.333328C3.5719 0.332016 3.74384 0.347647 3.91301 0.379995C4.07655 0.404195 4.23732 0.444388 4.39301 0.499995C4.50251 0.538414 4.60008 0.60475 4.67608 0.692443C4.75208 0.780136 4.80387 0.886147 4.82634 0.999995L5.73967 4.99999C5.76429 5.10857 5.76133 5.22158 5.73105 5.32872C5.70077 5.43585 5.64415 5.5337 5.56634 5.61333C5.47967 5.70666 5.47301 5.71333 4.65301 6.13999C5.30967 7.58057 6.46181 8.73743 7.89967 9.39999C8.33301 8.57333 8.33967 8.56666 8.43301 8.47999C8.51264 8.40219 8.61048 8.34556 8.71762 8.31528C8.82475 8.28501 8.93777 8.28204 9.04634 8.30666L13.0463 9.21999C13.1565 9.24556 13.2584 9.29876 13.3424 9.37457C13.4264 9.45037 13.4897 9.5463 13.5263 9.65333C13.5826 9.81157 13.625 9.9744 13.653 10.14C13.6798 10.3075 13.6932 10.477 13.693 10.6467C13.6807 11.4565 13.3485 12.2286 12.769 12.7944C12.1894 13.3602 11.4096 13.6738 10.5997 13.6667ZM3.39967 1.66666C2.94051 1.66842 2.50065 1.8516 2.17596 2.17628C1.85128 2.50097 1.6681 2.94083 1.66634 3.39999C1.66811 5.76872 2.60986 8.03992 4.2848 9.71486C5.95975 11.3898 8.23095 12.3316 10.5997 12.3333C11.0588 12.3316 11.4987 12.1484 11.8234 11.8237C12.1481 11.499 12.3313 11.0592 12.333 10.6V10.38L9.23967 9.66666L9.04634 10.0333C8.74634 10.6133 8.52634 11.0333 7.96634 10.8067C6.86159 10.4112 5.85881 9.77468 5.03083 8.94325C4.20286 8.11181 3.57049 7.10638 3.17967 5.99999C2.93967 5.47999 3.39301 5.23999 3.96634 4.93999L4.33301 4.75999L3.61967 1.66666H3.39967Z" fill="#969696"/>
</svg>
