<svg width="22" height="22" viewBox="0 0 22 22" fill="none" xmlns="http://www.w3.org/2000/svg">
<path d="M19.2496 17.4166L14.5251 12.6921C15.3985 11.3647 15.7483 9.76041 15.5068 8.18987C15.2653 6.61933 14.4497 5.19425 13.2178 4.19055C11.9859 3.18686 10.4255 2.67594 8.83852 2.75672C7.25158 2.83749 5.75104 3.50422 4.62745 4.62782C3.50386 5.75141 2.83713 7.25194 2.75635 8.83889C2.67557 10.4258 3.18649 11.9863 4.19019 13.2182C5.19388 14.4501 6.61896 15.2657 8.1895 15.5072C9.76005 15.7487 11.3643 15.3989 12.6918 14.5255L17.4163 19.25L19.2496 17.4166ZM4.58293 9.16663C4.58293 6.63938 6.63901 4.58329 9.16626 4.58329C11.6935 4.58329 13.7496 6.63938 13.7496 9.16663C13.7496 11.6939 11.6935 13.75 9.16626 13.75C6.63901 13.75 4.58293 11.6939 4.58293 9.16663Z" fill="white"/>
</svg>
